<svg width="185" height="66" viewBox="0 0 185 66" fill="none" xmlns="http://www.w3.org/2000/svg">
<path d="M54.5825 30.3622L44.6548 0.580566H53.6908L60.2895 22.6991L66.8288 0.580566H75.5679L65.6398 30.3622H54.5825Z" fill="#F0F6FB"/>
<path d="M105.992 23.9762C104.486 26.1823 102.544 27.9239 100.166 29.2011C97.8276 30.4396 94.954 31.0588 91.546 31.0588C89.0885 31.0588 86.8689 30.6718 84.8874 29.8978C82.9457 29.085 81.261 28.0013 79.8345 26.6467C78.4473 25.2534 77.3775 23.6086 76.6243 21.7122C75.871 19.8157 75.4946 17.7645 75.4946 15.5584C75.4946 13.4298 75.871 11.4173 76.6243 9.52084C77.4168 7.62441 78.5268 5.97955 79.9533 4.58625C81.3803 3.15426 83.0845 2.03188 85.066 1.21913C87.0476 0.406378 89.2273 0 91.6053 0C94.0226 0 96.1827 0.387024 98.0852 1.16108C99.9873 1.93512 101.592 2.99945 102.9 4.35404C104.248 5.70861 105.278 7.31479 105.992 9.17249C106.705 10.9915 107.062 12.9847 107.062 15.152C107.062 15.7326 107.042 16.3325 107.002 16.9517C106.963 17.571 106.943 17.9193 106.943 17.9967H83.639C84.0753 19.8931 84.9866 21.4025 86.3738 22.5249C87.8003 23.6473 89.5841 24.2085 91.7241 24.2085C93.5868 24.2085 95.1719 23.8602 96.4801 23.1635C97.8276 22.4282 98.9371 21.4606 99.8091 20.2608L105.992 23.9762ZM91.546 6.61815C89.6037 6.61815 87.9789 7.10194 86.6712 8.06947C85.4027 8.99837 84.4914 10.3142 83.9364 12.0171H98.7389C98.3031 10.1981 97.4115 8.84356 96.064 7.95339C94.7165 7.06321 93.2105 6.61815 91.546 6.61815Z" fill="#F0F6FB"/>
<path d="M109.934 30.3625V0.580878H118.197V4.64465C119.228 3.29006 120.476 2.20638 121.942 1.39363C123.448 0.580878 125.153 0.1745 127.055 0.1745V8.30202C124.003 8.30202 121.764 9.07612 120.337 10.6242C118.95 12.1336 118.257 14.1849 118.257 16.7779V30.3625H109.934Z" fill="#F0F6FB"/>
<path d="M143.506 7.60506C142.356 7.60506 141.287 7.81796 140.296 8.24366C139.344 8.66941 138.512 9.24992 137.799 9.98528C137.086 10.6819 136.511 11.5334 136.075 12.5397C135.679 13.5072 135.481 14.5328 135.481 15.6165C135.481 16.7389 135.679 17.7839 136.075 18.7514C136.511 19.719 137.086 20.5704 137.799 21.3058C138.512 22.0412 139.344 22.6217 140.296 23.0474C141.287 23.4344 142.356 23.628 143.506 23.628C144.695 23.628 145.785 23.4344 146.776 23.0474C147.806 22.6217 148.698 22.0412 149.451 21.3058C150.204 20.5704 150.779 19.719 151.175 18.7514C151.611 17.7839 151.829 16.7389 151.829 15.6165C151.829 14.5328 151.611 13.5072 151.175 12.5397C150.739 11.5334 150.145 10.6819 149.391 9.98528C148.639 9.24992 147.746 8.66941 146.716 8.24366C145.725 7.81796 144.655 7.60506 143.506 7.60506ZM151.71 28.1561C150.64 28.9689 149.312 29.6075 147.727 30.0719C146.181 30.5364 144.536 30.7686 142.793 30.7686C140.692 30.7686 138.71 30.3816 136.848 29.6075C134.985 28.8334 133.36 27.7691 131.973 26.4145C130.586 25.0599 129.476 23.4732 128.644 21.6541C127.812 19.7964 127.396 17.7839 127.396 15.6165C127.396 13.4878 127.812 11.4947 128.644 9.63694C129.476 7.74055 130.586 6.11501 131.973 4.76043C133.36 3.36714 134.985 2.28346 136.848 1.50942C138.71 0.696659 140.692 0.290283 142.793 0.290283C144.536 0.290283 146.181 0.54185 147.727 1.04498C149.312 1.50942 150.64 2.14801 151.71 2.96076V0.580553H159.973V30.3622H151.71V28.1561Z" fill="#F0F6FB"/>
<path d="M44.0512 58.2761C42.5852 60.6346 40.6833 62.5215 38.3455 63.9366C36.0474 65.3124 33.2144 66.0001 29.8464 66.0001C27.4691 66.0001 25.2898 65.5876 23.3087 64.7621C21.3671 63.9366 19.6832 62.816 18.2567 61.4009C16.8303 59.9858 15.7209 58.3353 14.9285 56.4485C14.136 54.5224 13.7397 52.4589 13.7397 50.2576C13.7397 48.0563 14.136 45.9926 14.9285 44.0666C15.7209 42.1405 16.8303 40.4699 18.2567 39.0549C19.6832 37.6398 21.3671 36.5195 23.3087 35.6941C25.2898 34.8687 27.4691 34.4559 29.8464 34.4559C33.2144 34.4559 36.0672 35.1831 38.405 36.6375C40.7824 38.0919 42.6842 39.9983 44.1107 42.3567L37.6323 46.3661C36.8399 45.1082 35.8691 44.0666 34.7201 43.2411C33.571 42.3764 32.0455 41.944 30.1437 41.944C27.7266 41.944 25.7653 42.7104 24.2596 44.2434C22.7936 45.7764 22.0605 47.7811 22.0605 50.2576C22.0605 52.7341 22.7936 54.7582 24.2596 56.3306C25.7653 57.8636 27.7266 58.6299 30.1437 58.6299C32.0455 58.6299 33.571 58.2174 34.7201 57.3919C35.8691 56.5271 36.8399 55.4658 37.6323 54.2079L44.0512 58.2761Z" fill="#F0F6FB"/>
<path d="M60.9566 42.1798C59.8079 42.1798 58.7381 42.396 57.7473 42.8284C56.7963 43.2608 55.9641 43.8504 55.2511 44.5972C54.5381 45.3047 53.9634 46.1695 53.5277 47.1915C53.1312 48.1742 52.9329 49.2157 52.9329 50.3163C52.9329 51.4563 53.1312 52.5176 53.5277 53.5003C53.9634 54.483 54.5381 55.3478 55.2511 56.0947C55.9641 56.8416 56.7963 57.4312 57.7473 57.8636C58.7381 58.2567 59.8079 58.4532 60.9566 58.4532C62.1456 58.4532 63.235 58.2567 64.2258 57.8636C65.2558 57.4312 66.1474 56.8416 66.9002 56.0947C67.6529 55.3478 68.2276 54.483 68.6236 53.5003C69.0598 52.5176 69.2777 51.4563 69.2777 50.3163C69.2777 49.2157 69.0598 48.1742 68.6236 47.1915C68.1878 46.1695 67.5936 45.3047 66.8408 44.5972C66.0881 43.8504 65.1964 43.2608 64.1664 42.8284C63.1757 42.396 62.1059 42.1798 60.9566 42.1798ZM69.159 63.0519C68.0887 63.8774 66.7613 64.5262 65.1768 64.9979C63.6315 65.4696 61.9871 65.7055 60.2436 65.7055C58.1434 65.7055 56.1623 65.3124 54.3001 64.5262C52.4378 63.74 50.8135 62.6588 49.4268 61.283C48.0398 59.9072 46.9303 58.296 46.0982 56.4485C45.2661 54.5617 44.8501 52.5176 44.8501 50.3163C44.8501 48.1545 45.2661 46.1302 46.0982 44.2434C46.9303 42.3174 48.0398 40.6665 49.4268 39.2907C50.8135 37.8756 52.4378 36.775 54.3001 35.9889C56.1623 35.1634 58.1434 34.7507 60.2436 34.7507C61.9871 34.7507 63.6315 35.0062 65.1768 35.5172C66.7613 35.9889 68.0887 36.6375 69.159 37.4629V35.0455H77.4202V65.2925H69.159V63.0519Z" fill="#F0F6FB"/>
<path d="M88.6368 55.7996C88.6368 56.2713 88.7158 56.7431 88.8743 57.2148C89.0726 57.6865 89.3896 58.1189 89.8253 58.5119C90.2616 58.905 90.8357 59.2394 91.5492 59.5146C92.2622 59.7892 93.1735 59.9271 94.283 59.9271C95.8282 59.9271 96.9574 59.6325 97.6709 59.0429C98.4236 58.4532 98.8 57.8044 98.8 57.0968C98.8 56.6251 98.6611 56.232 98.3839 55.9176C98.1066 55.5638 97.7303 55.2886 97.2548 55.0921C96.7793 54.8955 96.2046 54.7383 95.5314 54.6204C94.8974 54.4631 94.204 54.3258 93.4512 54.2079C92.1037 53.972 90.6772 53.7163 89.1717 53.4411C87.7054 53.1664 86.3388 52.7141 85.0708 52.0852C83.8425 51.417 82.812 50.4934 81.9802 49.3142C81.1877 48.1349 80.7912 46.5232 80.7912 44.4793C80.7912 43.1035 81.0886 41.826 81.6829 40.6468C82.2771 39.4676 83.1094 38.4456 84.1791 37.5808C85.2886 36.6768 86.616 35.9693 88.1613 35.4582C89.7066 34.9473 91.4501 34.6918 93.3913 34.6918C97.2744 34.6918 100.365 35.5958 102.663 37.404C104.961 39.2121 106.229 41.6491 106.467 44.7151H98.2058C98.166 44.1648 98.0669 43.6538 97.9084 43.1821C97.7896 42.7104 97.5521 42.3174 97.1954 42.0029C96.8386 41.6491 96.3631 41.374 95.7689 41.1775C95.1746 40.9809 94.4218 40.8827 93.5106 40.8827C92.3216 40.8827 91.2916 41.0989 90.4201 41.5312C89.5878 41.9243 89.1717 42.5926 89.1717 43.5359C89.1717 44.0862 89.3498 44.5579 89.7066 44.951C90.0633 45.3047 90.5584 45.5995 91.1924 45.8354C91.8265 46.0712 92.5596 46.2678 93.3913 46.425C94.2236 46.5822 95.0951 46.7394 96.0069 46.8967C97.3141 47.1325 98.6415 47.4077 99.9885 47.7221C101.376 47.9973 102.624 48.4493 103.733 49.0783C104.882 49.7073 105.813 50.5522 106.526 51.6135C107.24 52.6355 107.596 53.9914 107.596 55.6817C107.596 57.4899 107.24 59.0429 106.526 60.3396C105.813 61.5974 104.843 62.6394 103.614 63.4649C102.386 64.2903 100.92 64.8994 99.2161 65.2925C97.5521 65.6856 95.7689 65.8821 93.8668 65.8821C91.7671 65.8821 89.8847 65.6268 88.2207 65.1158C86.5964 64.6048 85.1895 63.8973 84.001 62.9932C82.8517 62.0891 81.9405 61.0277 81.2667 59.8091C80.6327 58.5906 80.2961 57.2541 80.2563 55.7996H88.6368Z" fill="#F0F6FB"/>
<path d="M110.275 65.2925V35.0455H118.537V65.2925H110.275Z" fill="#F0F6FB"/>
<path d="M130.026 38.1115C130.779 37.2468 131.909 36.4409 133.414 35.6941C134.92 34.908 136.742 34.5149 138.882 34.5149C140.665 34.5149 142.27 34.8097 143.696 35.3993C145.162 35.9889 146.41 36.8144 147.441 37.8757C148.471 38.9369 149.263 40.2341 149.818 41.7671C150.373 43.2608 150.65 44.9117 150.65 46.7198V65.2925H142.448V48.1349C142.448 46.3268 141.953 44.8724 140.962 43.7718C140.011 42.6319 138.644 42.0619 136.861 42.0619C134.841 42.0619 133.216 42.6515 131.988 43.8307C130.759 45.01 130.145 46.6608 130.145 48.7833V65.2925H121.884V35.0456H130.026V38.1115Z" fill="#F0F6FB"/>
<path d="M44.8458 30.5735L34.8408 0.485291H43.9471L51.3784 22.733L53.9788 30.5735H44.8458Z" fill="#970FAD"/>
<path d="M29.1427 30.5735L19.1377 0.485291H28.244L35.6754 22.733L38.2756 30.5735H29.1427Z" fill="#C72DE0"/>
<path d="M34.5411 30.5735L24.5361 0.485291H33.6425L41.0738 22.733L43.6741 30.5735H34.5411Z" fill="#C72DE0"/>
<path d="M17.8565 30.5735L7.85156 0.485291H16.9579L24.3892 22.733L26.9895 30.5735H17.8565Z" fill="#E64CFF"/>
<path d="M10.005 30.5735L0 0.485291H9.10632L16.5377 22.733L19.1379 30.5735H10.005Z" fill="#E64CFF"/>
<path fill-rule="evenodd" clip-rule="evenodd" d="M169.297 66C177.97 66 185 59.0472 185 50.4706C185 41.8939 177.97 34.9412 169.297 34.9412C160.625 34.9412 153.594 41.8939 153.594 50.4706C153.594 59.0472 160.625 66 169.297 66ZM169.297 58.2353C173.634 58.2353 177.149 54.7591 177.149 50.4706C177.149 46.1822 173.634 42.7059 169.297 42.7059C164.961 42.7059 161.446 46.1822 161.446 50.4706C161.446 54.7591 164.961 58.2353 169.297 58.2353Z" fill="#F0F6FB"/>
</svg>
