<svg width="48" height="48" viewBox="0 0 48 48" fill="none" xmlns="http://www.w3.org/2000/svg">
<path d="M47.2768 29.8063C44.0713 42.6636 31.049 50.4884 18.1902 47.2821C5.33662 44.0766 -2.48816 31.0535 0.718847 18.197C3.92286 5.33821 16.9452 -2.48731 29.8002 0.7182C42.6583 3.92371 50.4823 16.9483 47.2768 29.8063Z" fill="#F7931A"/>
<path d="M34.5793 20.5813C35.057 17.3878 32.6255 15.6711 29.3008 14.5258L30.3793 10.1998L27.746 9.54354L26.696 13.7556C26.0038 13.5831 25.2928 13.4203 24.5862 13.2591L25.6438 9.01929L23.012 8.36304L21.9327 12.6875C21.3597 12.557 20.7972 12.4281 20.2512 12.2923L20.2542 12.2788L16.6227 11.372L15.9222 14.1846C15.9222 14.1846 17.876 14.6323 17.8347 14.6601C18.9012 14.9263 19.094 15.6321 19.0617 16.1916L17.8332 21.1198C17.9067 21.1386 18.002 21.1656 18.107 21.2076C18.0192 21.1858 17.9255 21.1618 17.8287 21.1386L16.1067 28.0424C15.9762 28.3664 15.6455 28.8524 14.9 28.6679C14.9262 28.7061 12.986 28.1901 12.986 28.1901L11.6787 31.2044L15.1055 32.0586C15.743 32.2184 16.3677 32.3856 16.9827 32.5431L15.893 36.9186L18.5232 37.5749L19.6025 33.2459C20.321 33.4409 21.0185 33.6209 21.701 33.7904L20.6255 38.0991L23.2588 38.7554L24.3485 34.3881C28.8388 35.2379 32.2153 34.8951 33.6365 30.8339C34.7818 27.5639 33.5795 25.6776 31.217 24.4476C32.9375 24.0508 34.2335 22.9191 34.5793 20.5813ZM28.5628 29.0181C27.749 32.2881 22.2432 30.5204 20.4582 30.0771L21.9042 24.2803C23.6893 24.7258 29.4133 25.6079 28.5628 29.0181ZM29.3773 20.5341C28.6348 23.5086 24.0522 21.9973 22.5657 21.6268L23.8768 16.3693C25.3633 16.7398 30.1505 17.4313 29.3773 20.5341Z" fill="white"/>
</svg>
