<svg width="48" height="48" viewBox="0 0 48 48" fill="none" xmlns="http://www.w3.org/2000/svg">
<circle cx="24" cy="24" r="23" fill="white"/>
<path d="M24.2581 0C11.0043 0 0 11.0043 0 24.2581C0 37.5118 11.0043 48 24.2581 48C37.5118 48 48 37.5118 48 24.2581C47.9724 11.0043 37.5118 0 24.2581 0ZM24.2581 24.7742L21.6774 33.0323H35.0968C35.5652 33.0323 36.2393 33.6236 36.129 34.0645L34.5806 38.1935C34.4704 38.5793 34.4778 38.7097 34.0645 38.7097H13.4194L17.0323 26.8387L12.9032 28.3871L13.9355 25.2903L17.5484 24.2581L22.7097 7.74194C22.8199 7.35617 22.8125 7.22581 23.2258 7.22581H28.3871C28.8555 7.22581 29.5296 7.81719 29.4194 8.25806L25.2903 22.1935L28.9032 20.6452L28.3871 23.7419L24.2581 24.7742Z" fill="#345D9D"/>
</svg>
