<svg width="48" height="48" viewBox="0 0 48 48" fill="none" xmlns="http://www.w3.org/2000/svg">
<path d="M24 48C37.2548 48 48 37.2548 48 24C48 10.7452 37.2548 0 24 0C10.7452 0 0 10.7452 0 24C0 37.2548 10.7452 48 24 48Z" fill="#26A17B"/>
<path d="M26.7827 26.2228V26.219C26.6166 26.2306 25.7588 26.2807 23.85 26.2807C22.3238 26.2807 21.2535 26.2383 20.8749 26.219V26.2228C15.0057 25.9642 10.6279 24.9453 10.6279 23.7218C10.6279 22.5021 15.0095 21.4793 20.8749 21.2207V25.2077C21.2574 25.2348 22.3586 25.3004 23.8771 25.3004C25.7008 25.3004 26.6127 25.2232 26.7827 25.2077V21.2245C32.6403 21.487 37.0065 22.506 37.0065 23.7256C37.0065 24.9453 32.6365 25.9642 26.7827 26.2267M26.7827 20.8116V17.2452H34.9548V11.8069H12.7067V17.2452H20.8787V20.8116C14.2367 21.1165 9.24463 22.4288 9.24463 24.0035C9.24463 25.5783 14.2406 26.8906 20.8787 27.1993V38.6318H26.7866V27.1993C33.417 26.8944 38.4014 25.5821 38.4014 24.0074C38.4014 22.4365 33.417 21.1203 26.7866 20.8154" fill="white"/>
</svg>
